<svg
				width="24"
				height="24"
				viewBox="0 0 24 24"
				fill="none"
				xmlns="http://www.w3.org/2000/svg"
			>
				<path
					d="M2 24C1.41667 24 0.9375 23.8125 0.5625 23.4375C0.1875 23.0625 0 22.5833 0 22V2C0 1.41667 0.1875 0.9375 0.5625 0.5625C0.9375 0.1875 1.41667 0 2 0H22C22.5833 0 23.0625 0.1875 23.4375 0.5625C23.8125 0.9375 24 1.41667 24 2V22C24 22.5833 23.8125 23.0625 23.4375 23.4375C23.0625 23.8125 22.5833 24 22 24H2ZM12 14L16 18L18 16L14 12L18 8L16 6L12 10L8 6L6 8L10 12L6 16L8 18L12 14Z"
					fill="black"
				/>
			</svg>